<svg xmlns="http://www.w3.org/2000/svg" xmlns:xlink="http://www.w3.org/1999/xlink" width="500" height="500" viewBox="0 0 500 500">
  <defs>
    <clipPath id="clip-Artboard_1">
      <rect width="500" height="500"/>
    </clipPath>
  </defs>
  <g id="Artboard_1" data-name="Artboard 1" clip-path="url(#clip-Artboard_1)">
    <rect width="500" height="500" fill="#fff"/>
    <g id="Floor">
      <path id="Path_1" data-name="Path 1" d="M125.235,389.243c68.906,32.842,180.625,32.843,249.531,0s68.906-86.09,0-118.931-180.626-32.843-249.532,0S56.328,356.4,125.235,389.243Z" fill="#f5f5f5"/>
    </g>
    <g id="Shadow">
      <ellipse id="Ellipse_1" data-name="Ellipse 1" cx="22.978" cy="10.952" rx="22.978" ry="10.952" transform="translate(351.552 343.07)" fill="#ebebeb"/>
    </g>
    <g id="Plants">
      <g id="Group_10" data-name="Group 10">
        <g id="Group_4" data-name="Group 4">
          <g id="Group_2" data-name="Group 2">
            <g id="Group_1" data-name="Group 1">
              <path id="Path_2" data-name="Path 2" d="M119.954,355.593l8.124-4.691A32.572,32.572,0,0,0,138.1,336.831c2.511-6.92,2.165-12.184.364-14.823-2.215-3.247-7.946-2.68-8.173,4.166C129.841,339.654,125.908,348.98,119.954,355.593Z" fill="#27debf"/>
              <path id="Path_3" data-name="Path 3" d="M119.954,355.593l8.124-4.691A32.572,32.572,0,0,0,138.1,336.831c2.511-6.92,2.165-12.184.364-14.823-2.215-3.247-7.946-2.68-8.173,4.166C129.841,339.654,125.908,348.98,119.954,355.593Z" opacity="0.2"/>
            </g>
            <path id="Path_4" data-name="Path 4" d="M119.955,356.093a.5.5,0,0,1-.286-.911c18.8-13.007,15.156-31.128,15.117-31.31a.5.5,0,0,1,.978-.211c.04.188,3.839,18.943-15.525,32.343A.491.491,0,0,1,119.955,356.093Z" fill="#fff"/>
          </g>
          <g id="Group_3" data-name="Group 3">
            <path id="Path_5" data-name="Path 5" d="M103.706,364.974s-2.828-2.3-2.144-5.42,2.509-5.36-.627-9.381-3.946-9.381-.258-12.287c2.851-2.247,7.3.937,8.906-5.016,1.172-4.34.772-13.949,6.309-17.146s8.974,1.616,8.124,8.133c-.761,5.832-1.831,11.446-1.006,12.974,1.615,2.988,4.391,2.587,4.265,8.066-.118,5.1-4.941,9.322-4.941,9.322Z" fill="#27debf"/>
            <path id="Path_6" data-name="Path 6" d="M113,360.108a.5.5,0,0,1-.5-.44c-1.431-11.849,1.979-32.307,4.8-38.388a.5.5,0,0,1,.907.42c-2.771,5.976-6.083,26.523-4.714,37.849a.5.5,0,0,1-.436.555A.427.427,0,0,1,113,360.108Z" fill="#fff"/>
            <path id="Path_7" data-name="Path 7" d="M112.727,350.884a.508.508,0,0,1-.219-.051c-3.469-1.7-5.669-7.722-5.761-7.978a.5.5,0,1,1,.941-.337c.021.058,2.154,5.9,5.26,7.417a.5.5,0,0,1-.221.949Z" fill="#fff"/>
            <path id="Path_8" data-name="Path 8" d="M112.671,354.877a.5.5,0,0,1-.186-.964c5.839-2.34,9.479-9.3,9.515-9.368a.5.5,0,0,1,.889.459c-.155.3-3.85,7.36-10.032,9.837A.508.508,0,0,1,112.671,354.877Z" fill="#fff"/>
          </g>
        </g>
        <g id="Group_9" data-name="Group 9">
          <g id="Group_5" data-name="Group 5">
            <path id="Path_9" data-name="Path 9" d="M316.8,301.083s-4.373-7.072-4.8-14.772,1.267-10.894,3.586-11.812,2.494,1.908,3.691,3.583,3.62.716,4.515-4.491,4.178-14.031,10.969-15.714c7.5-1.858,3.477,6.94,1.594,10.373s-3.351,8.108-2.109,9.381,3.166-1.079,5.013,1.1c2.229,2.632-4.7,12.1-8.677,14.391Z" fill="#27debf"/>
            <path id="Path_10" data-name="Path 10" d="M322.792,298.105h-.026a.5.5,0,0,1-.473-.525,72.057,72.057,0,0,1,11.2-34.8.5.5,0,0,1,.813.582,71.015,71.015,0,0,0-11.01,34.27A.5.5,0,0,1,322.792,298.105Z" fill="#fff"/>
            <path id="Path_11" data-name="Path 11" d="M323.363,292.2a.5.5,0,0,1-.242-.062c-2.8-1.55-4.352-6.149-4.416-6.344a.5.5,0,0,1,.949-.315c.015.044,1.493,4.424,3.951,5.784a.5.5,0,0,1-.242.937Z" fill="#fff"/>
            <path id="Path_12" data-name="Path 12" d="M323.853,289.171a.5.5,0,0,1-.123-.985c7.218-1.825,9.718-5.608,9.743-5.645a.5.5,0,0,1,.843.536c-.106.169-2.7,4.148-10.339,6.078A.486.486,0,0,1,323.853,289.171Z" fill="#fff"/>
          </g>
          <g id="Group_8" data-name="Group 8">
            <g id="Group_6" data-name="Group 6">
              <path id="Path_13" data-name="Path 13" d="M208.022,285.535s-9.589-2.338-10.088-20.293c-.539-19.381,2.349-41.99-8.96-43.829s-17.655,12.028-17.51,28.142c.127,14.149,5.825,44.849,36.557,50.866Z" fill="#27debf"/>
              <path id="Path_14" data-name="Path 14" d="M208.022,285.535s-9.589-2.338-10.088-20.293c-.539-19.381,2.349-41.99-8.96-43.829s-17.655,12.028-17.51,28.142c.127,14.149,5.825,44.849,36.557,50.866Z" opacity="0.2"/>
            </g>
            <path id="Path_15" data-name="Path 15" d="M208.021,298.575a.545.545,0,0,1-.089-.008A25.068,25.068,0,0,1,191.2,287.261c-12.424-18.534-8.51-53.13-7.225-59.174a.5.5,0,0,1,.979.208c-1.271,5.976-5.153,40.165,7.077,58.409a24.1,24.1,0,0,0,16.076,10.879.5.5,0,0,1-.089.992Z" fill="#fff"/>
            <g id="Group_7" data-name="Group 7">
              <path id="Path_16" data-name="Path 16" d="M208.022,344.67c-9.914,1.344-26.019,1.32-35.295-6s-7.346-13.622-3.778-16.252,6.667-5.637.529-11.474-16.006-15.217-19.2-29.289-1.62-22.865,4.659-25.8c6.093-2.844,7.7,1.675,11.427,11s12.123,1.331,19.3,4.241,6.894,8.67,7.346,13.622,2.822,6.32,6.885,6.32,8.123,2.345,8.124,7.035Z" fill="#27debf"/>
              <path id="Path_17" data-name="Path 17" d="M208.022,328.333a.521.521,0,0,1-.134-.018c-.43-.121-10.683-3.105-25.607-16.814-15.9-14.6-23.4-36.5-23.477-36.718a.5.5,0,1,1,.947-.32c.073.218,7.5,21.876,23.207,36.3,14.724,13.525,25.1,16.557,25.2,16.587a.5.5,0,0,1-.136.981Z" fill="#fff"/>
              <path id="Path_18" data-name="Path 18" d="M186.434,314.992a.5.5,0,0,1-.466-.318c-3.209-8.247-3.936-25.876-3.966-26.622a.5.5,0,0,1,.48-.52.522.522,0,0,1,.519.481c.008.18.75,18.208,3.9,26.3a.5.5,0,0,1-.465.682Z" fill="#fff"/>
              <path id="Path_19" data-name="Path 19" d="M186.35,326.853a25.135,25.135,0,0,1-2.759-.138.5.5,0,0,1-.438-.556.494.494,0,0,1,.556-.436c.093.008,9.4,1.06,13.67-3.3a.5.5,0,1,1,.714.7C194.966,326.315,189.608,326.853,186.35,326.853Z" fill="#fff"/>
            </g>
          </g>
        </g>
      </g>
    </g>
    <g id="Gear">
      <g id="Group_13" data-name="Group 13">
        <g id="Group_11" data-name="Group 11">
          <path id="Path_20" data-name="Path 20" d="M179.148,137.494l-1.073-6.235-5.564,3.661a7.669,7.669,0,0,0-2.115-2.568l2.662-7.2-4.956-1.109-3.663,6.978a13.346,13.346,0,0,0-3.814,1.242L159.04,127,153.1,131.67l.389,6.2a33.07,33.07,0,0,0-3.283,4.337l-4.9-.242-3.439,7.708,4.212,1.8a25.133,25.133,0,0,0-.832,4.885l-5.347,4.917,1.074,6.235,5.563-3.661a7.65,7.65,0,0,0,2.116,2.568l-2.663,7.2,4.957,1.109,5.238-5.108c1.214-.186.918-2.466,2.239-3.112l1.584,5.259,5.937-4.667-.153-2.438c1.2-1.337,5.738-4.286,6.719-5.825l1.232-2.032,3.438-7.708-1.6-2.9-1.778-3.779Zm-18.132,20.55c-4.555,3.58-5.942,4.361-6.766-.422s1.841-12.077,6.4-15.657,6.3-3.848,7.125.935S165.57,154.463,161.016,158.044Z" fill="#e0e0e0"/>
          <path id="Path_21" data-name="Path 21" d="M168.1,124.043l6.485,3.74-3.662,6.978-6.485-3.74Z" fill="#f5f5f5"/>
          <path id="Path_22" data-name="Path 22" d="M184.56,135,179,138.66l-6.485-3.74,5.564-3.661Z" fill="#f5f5f5"/>
          <path id="Path_23" data-name="Path 23" d="M183.666,152.833l-4.212-1.8-6.485-3.74,4.212,1.8Z" fill="#e0e0e0"/>
          <path id="Path_24" data-name="Path 24" d="M145.99,173.615l6.485,3.74,2.662-7.2-6.485-3.74Z" fill="#e0e0e0"/>
          <path id="Path_25" data-name="Path 25" d="M166.494,175.5l-6.485-3.74-1.584-5.259,6.485,3.74Z" fill="#e0e0e0"/>
          <path id="Path_26" data-name="Path 26" d="M185.633,141.234,184.56,135,179,138.66a7.673,7.673,0,0,0-2.116-2.568l2.662-7.2-4.957-1.109-3.661,6.978A13.342,13.342,0,0,0,167.11,136l-1.585-5.259-5.936,4.667.388,6.2a33.222,33.222,0,0,0-3.281,4.338l-4.9-.242-3.439,7.708,4.212,1.8a25.141,25.141,0,0,0-.832,4.886l-5.347,4.917,1.074,6.235,5.563-3.661a7.683,7.683,0,0,0,2.116,2.568l-2.662,7.2,4.956,1.108,3.662-6.977a13.351,13.351,0,0,0,3.815-1.242l1.585,5.259,5.936-4.667-.389-6.2a33.13,33.13,0,0,0,3.282-4.337l4.9.242,3.438-7.708-4.211-1.8a25.128,25.128,0,0,0,.831-4.885ZM167.5,161.784c-4.554,3.58-8.914,2.605-9.738-2.178s2.2-11.564,6.755-15.144,8.914-2.606,9.737,2.178S172.055,158.2,167.5,161.784Z" fill="#ebebeb"/>
          <path id="Path_27" data-name="Path 27" d="M165.525,130.743,159.04,127,153.1,131.67l6.485,3.74Z" fill="#f5f5f5"/>
          <path id="Path_28" data-name="Path 28" d="M153.1,131.67l.389,6.2,6.485,3.74-.389-6.2Z" fill="#e0e0e0"/>
          <path id="Path_29" data-name="Path 29" d="M156.7,145.947l-6.485-3.74-4.9-.242,6.485,3.74Z" fill="#f5f5f5"/>
          <path id="Path_30" data-name="Path 30" d="M145.306,141.965l-3.439,7.708,6.485,3.74,3.439-7.708Z" fill="#e0e0e0"/>
          <path id="Path_31" data-name="Path 31" d="M151.732,160.1l-6.485-3.74-5.347,4.917,6.485,3.74Z" fill="#f5f5f5"/>
          <path id="Path_32" data-name="Path 32" d="M147.459,171.247l-6.485-3.74-1.074-6.235,6.485,3.74Z" fill="#e0e0e0"/>
          <path id="Path_33" data-name="Path 33" d="M174.586,127.782l-6.485-3.74,4.956,1.108,6.485,3.74Z" fill="#f5f5f5"/>
        </g>
        <g id="Group_12" data-name="Group 12">
          <path id="Path_34" data-name="Path 34" d="M150.093,109.215V99.9l-7.411,3.341a13.181,13.181,0,0,0-2-4.41l4.669-9.416-5.7-3.292-5.818,8.752a13.157,13.157,0,0,0-4.821.471l-.813-8.089-8.064,4.657-.813,9.026a39.789,39.789,0,0,0-4.82,5.1L108.678,104l-5.7,9.877,4.669,4.023a39.777,39.777,0,0,0-2,6.723l-7.412,5.217v9.312l7.412-3.341a13.175,13.175,0,0,0,2,4.411l-4.669,9.415,5.7,3.292,5.819-8.751a13.177,13.177,0,0,0,4.82-.472l.813,8.089,8.064-4.656.813-9.027a15.116,15.116,0,0,0,6.465-4.533l4.174,1.47,5.7-9.877-3.5-3.015a20.859,20.859,0,0,0,.832-7.73Zm-25.931,23.25c-6.187,3.573-10.033,1.038-10.033-6.106s5.113-15.9,11.3-19.468,9.935-.974,9.935,6.17S130.349,128.893,124.162,132.465Z" fill="#e0e0e0"/>
          <path id="Path_35" data-name="Path 35" d="M146.132,89.865l-6.485-3.74-5.819,8.752,6.485,3.74Z" fill="#f5f5f5"/>
          <path id="Path_36" data-name="Path 36" d="M156.578,103.642l-6.485-3.74-7.411,3.341,6.485,3.74Z" fill="#f5f5f5"/>
          <path id="Path_37" data-name="Path 37" d="M126.615,155.54l-6.485-3.74-.812-8.089,6.485,3.74Z" fill="#e0e0e0"/>
          <path id="Path_38" data-name="Path 38" d="M102.975,149.642l6.485,3.74,4.669-9.415-6.485-3.74Z" fill="#e0e0e0"/>
          <path id="Path_39" data-name="Path 39" d="M156.578,112.955v-9.313l-7.411,3.341a13.2,13.2,0,0,0-2-4.411l4.669-9.415-5.7-3.292-5.82,8.751a13.177,13.177,0,0,0-4.82.472L134.68,91l-8.065,4.656-.812,9.027a39.866,39.866,0,0,0-4.821,5.1l-5.819-2.032-5.7,9.877,4.669,4.023a39.869,39.869,0,0,0-2,6.723l-7.411,5.216V142.9l7.411-3.34a13.2,13.2,0,0,0,2,4.411l-4.669,9.415,5.7,3.292,5.819-8.751a13.2,13.2,0,0,0,4.821-.472l.812,8.089,8.065-4.657.812-9.027a39.714,39.714,0,0,0,4.82-5.094l5.82,2.032,5.7-9.877-4.669-4.023a39.9,39.9,0,0,0,2-6.723Zm-25.931,23.25c-6.187,3.572-11.2.676-11.2-6.468s5.016-15.831,11.2-19.4,11.2-.676,11.2,6.468S136.834,132.633,130.647,136.205Z" fill="#ebebeb"/>
          <path id="Path_40" data-name="Path 40" d="M114.5,106.037l6.485,3.74-5.819-2.032L108.678,104Z" fill="#f0f0f0"/>
          <rect id="Rectangle_1" data-name="Rectangle 1" width="11.405" height="7.486" transform="translate(102.977 113.883) rotate(-60.025)" fill="#f5f5f5"/>
          <path id="Path_41" data-name="Path 41" d="M102.975,113.882l6.485,3.74,4.669,4.023-6.485-3.74Z" fill="#e0e0e0"/>
          <path id="Path_42" data-name="Path 42" d="M105.643,124.628l6.485,3.74-7.411,5.217-6.485-3.74Z" fill="#f5f5f5"/>
          <path id="Path_43" data-name="Path 43" d="M98.231,129.845l6.485,3.74V142.9l-6.485-3.74Z" fill="#e0e0e0"/>
          <path id="Path_44" data-name="Path 44" d="M134.68,91l-6.485-3.74-8.064,4.656,6.485,3.74Z" fill="#f5f5f5"/>
        </g>
      </g>
    </g>
    <g id="Device">
      <g id="Group_23" data-name="Group 23">
        <path id="Path_45" data-name="Path 45" d="M217.878,358.052,311.9,303.767a1.057,1.057,0,0,0,0-2l-8.7-5.033a3.827,3.827,0,0,0-3.464,0l-94.05,54.286a1.055,1.055,0,0,0,0,2l8.722,5.036A3.836,3.836,0,0,0,217.878,358.052Z" fill="#e0e0e0"/>
        <path id="Path_46" data-name="Path 46" d="M309.3,94.2l-84.767,48.94a9.573,9.573,0,0,0-4.33,7.5v201.07c0,2.762,1.939,3.881,4.33,2.5L309.3,305.267a9.575,9.575,0,0,0,4.33-7.5V96.7C313.634,93.935,311.7,92.815,309.3,94.2Z" fill="#455a64"/>
        <path id="Path_47" data-name="Path 47" d="M224.537,143.136,309.3,94.2c2.138-1.234,3.91-.466,4.262,1.684A9.681,9.681,0,0,0,309.3,89.2l-3.526-2.035a9.571,9.571,0,0,0-8.661,0L212.351,136.1a8.851,8.851,0,0,0-3.062,3.232l12.187,7.035A8.857,8.857,0,0,1,224.537,143.136Z" fill="#37474f"/>
        <path id="Path_48" data-name="Path 48" d="M208.022,344.67a9.57,9.57,0,0,0,4.33,7.5l3.526,2.036a9.681,9.681,0,0,0,7.924.348c-2.04.774-3.6-.376-3.6-2.848V150.636a8.851,8.851,0,0,1,1.269-4.268l-12.187-7.035a8.846,8.846,0,0,0-1.268,4.268Z" fill="#263238"/>
        <path id="Path_49" data-name="Path 49" d="M226.868,169.934l80.106-46.25c1.435-.829,2.6-.157,2.6,1.5V273.969a5.744,5.744,0,0,1-2.6,4.5l-80.107,46.25c-1.434.828-2.6.156-2.6-1.5V174.434A5.742,5.742,0,0,1,226.868,169.934Z" fill="#fff"/>
        <path id="Path_50" data-name="Path 50" d="M266.921,126.294a3.369,3.369,0,0,0-1.524,2.638c0,.972.683,1.365,1.524.879a3.362,3.362,0,0,0,1.523-2.638C268.444,126.2,267.763,125.808,266.921,126.294Z" fill="#37474f"/>
        <path id="Path_51" data-name="Path 51" d="M266.923,308.738a13.3,13.3,0,0,0-6.015,10.418c0,3.835,2.693,5.39,6.015,3.472a13.292,13.292,0,0,0,6.013-10.417C272.936,308.376,270.244,306.821,266.923,308.738Z" fill="#37474f"/>
        <g id="Group_14" data-name="Group 14">
          <path id="Path_52" data-name="Path 52" d="M252.533,141.771a6.736,6.736,0,0,0-3.046,5.277c0,1.943,1.364,2.73,3.047,1.759a6.733,6.733,0,0,0,3.046-5.277C255.58,141.587,254.216,140.8,252.533,141.771Z" fill="#37474f"/>
          <path id="Path_53" data-name="Path 53" d="M259.982,141.112c0,1.295.97,1.786,2.165,1.1l20.043-11.572a4.641,4.641,0,0,0,2.165-3.6c0-1.295-.969-1.786-2.166-1.1l-20.042,11.571A4.645,4.645,0,0,0,259.982,141.112Z" fill="#37474f"/>
        </g>
        <path id="Path_54" data-name="Path 54" d="M214.763,176.372a5.387,5.387,0,0,1,2.437,4.222c0,1.554-1.091,2.184-2.437,1.407a5.388,5.388,0,0,1-2.437-4.222C212.326,176.225,213.417,175.6,214.763,176.372Z" fill="#37474f"/>
        <path id="Path_55" data-name="Path 55" d="M214.763,195.148a5.39,5.39,0,0,1,2.437,4.222c0,1.554-1.091,2.184-2.437,1.407a5.386,5.386,0,0,1-2.437-4.221C212.326,195,213.417,194.372,214.763,195.148Z" fill="#37474f"/>
        <path id="Path_56" data-name="Path 56" d="M214.01,176.748a5.389,5.389,0,0,1,2.438,4.222c0,1.554-1.092,2.184-2.438,1.407a5.386,5.386,0,0,1-2.437-4.221C211.573,176.6,212.665,175.971,214.01,176.748Z" fill="#455a64"/>
        <path id="Path_57" data-name="Path 57" d="M214.01,195.525a5.388,5.388,0,0,1,2.438,4.222c0,1.554-1.092,2.184-2.438,1.407a5.388,5.388,0,0,1-2.437-4.222C211.573,195.378,212.665,194.748,214.01,195.525Z" fill="#455a64"/>
        <g id="Group_15" data-name="Group 15">
          <path id="Path_58" data-name="Path 58" d="M325.821,129.889c0-1.657-1.163-2.329-2.6-1.5l-9.588,5.535-70.518,40.714a5.743,5.743,0,0,0-2.6,4.5V327.923c0,1.657,1.164,2.328,2.6,1.5l70.543-40.729,9.564-5.52a5.747,5.747,0,0,0,2.6-4.5Z" fill="#fff" stroke="#27debf" stroke-miterlimit="10" stroke-width="1"/>
          <path id="Path_59" data-name="Path 59" d="M241.956,330.279a1.836,1.836,0,0,1-.926-.241,2.3,2.3,0,0,1-1.011-2.115V179.138a6.208,6.208,0,0,1,2.848-4.933l70.518-40.714.5.866-70.518,40.714a5.277,5.277,0,0,0-2.348,4.067V327.923a1.1,1.1,0,0,0,1.848,1.067l70.543-40.728.5.865-70.543,40.728A2.841,2.841,0,0,1,241.956,330.279Z" fill="#27debf" stroke="#27debf" stroke-miterlimit="10" stroke-width="1"/>
          <path id="Path_60" data-name="Path 60" d="M313.91,289.127l-.5-.865,9.564-5.521a5.28,5.28,0,0,0,2.348-4.067V129.889a1.1,1.1,0,0,0-1.848-1.067l-9.588,5.535-.5-.866,9.588-5.535a2.072,2.072,0,0,1,3.348,1.933V278.674a6.21,6.21,0,0,1-2.848,4.932Z" fill="#27debf" stroke="#27debf" stroke-miterlimit="10" stroke-width="1"/>
        </g>
        <g id="Group_16" data-name="Group 16">
          <path id="Path_61" data-name="Path 61" d="M283.17,164.464c8.974-5.181,16.248-.981,16.248,9.381s-7.274,22.962-16.248,28.143-16.248.981-16.248-9.381S274.2,169.645,283.17,164.464Z" fill="#27debf"/>
          <path id="Path_62" data-name="Path 62" d="M283.17,172.619c2.911-1.681,5.271-.318,5.271,3.043a11.65,11.65,0,0,1-5.271,9.13c-2.911,1.681-5.272.319-5.272-3.043A11.652,11.652,0,0,1,283.17,172.619Z" fill="#27debf"/>
        </g>
        <path id="Path_63" data-name="Path 63" d="M293.444,190.544c0-5.523-3.878-7.762-8.66-5l-2.99,1.726c-4.782,2.761-8.66,9.477-8.66,15v1.486c2.764.918,6.245.421,10.036-1.768a32.026,32.026,0,0,0,10.274-10.163Z" fill="#27debf"/>
        <g id="Group_17" data-name="Group 17">
          <path id="Path_64" data-name="Path 64" d="M283.17,172.619c2.911-1.681,5.271-.318,5.271,3.043a11.65,11.65,0,0,1-5.271,9.13c-2.911,1.681-5.272.319-5.272-3.043A11.652,11.652,0,0,1,283.17,172.619Z" fill="#fff" opacity="0.7"/>
          <path id="Path_65" data-name="Path 65" d="M293.444,190.544c0-5.523-3.878-7.762-8.66-5l-2.99,1.726c-4.782,2.761-8.66,9.477-8.66,15v1.486c2.764.918,6.245.421,10.036-1.768a32.026,32.026,0,0,0,10.274-10.163Z" fill="#fff" opacity="0.7"/>
        </g>
        <g id="Group_18" data-name="Group 18">
          <path id="Path_66" data-name="Path 66" d="M251.731,224.839l20.909-12.071c.957-.553,1.732-.105,1.732,1v.69a3.826,3.826,0,0,1-1.732,3l-20.909,12.071c-.956.553-1.732.1-1.732-1v-.69A3.829,3.829,0,0,1,251.731,224.839Z" fill="#27debf"/>
          <path id="Path_67" data-name="Path 67" d="M251.731,224.839l20.909-12.071c.957-.553,1.732-.105,1.732,1v.69a3.826,3.826,0,0,1-1.732,3l-20.909,12.071c-.956.553-1.732.1-1.732-1v-.69A3.829,3.829,0,0,1,251.731,224.839Z" opacity="0.1"/>
        </g>
        <g id="Group_19" data-name="Group 19">
          <path id="Path_68" data-name="Path 68" d="M250.866,239.41l63.26-36.523c.478-.276.866-.053.866.5v7.381a1.915,1.915,0,0,1-.866,1.5l-63.26,36.524c-.478.275-.866.052-.866-.5V240.91A1.915,1.915,0,0,1,250.866,239.41Z" fill="#27debf"/>
          <path id="Path_69" data-name="Path 69" d="M250.866,239.41l63.26-36.523c.478-.276.866-.053.866.5v7.381a1.915,1.915,0,0,1-.866,1.5l-63.26,36.524c-.478.275-.866.052-.866-.5V240.91A1.915,1.915,0,0,1,250.866,239.41Z" fill="#fff" opacity="0.2"/>
        </g>
        <g id="Group_20" data-name="Group 20">
          <path id="Path_70" data-name="Path 70" d="M251.731,257.672,272.64,245.6c.957-.553,1.732-.1,1.732,1v.69a3.828,3.828,0,0,1-1.732,3l-20.909,12.071c-.956.553-1.732.105-1.732-1v-.69A3.83,3.83,0,0,1,251.731,257.672Z" fill="#27debf"/>
          <path id="Path_71" data-name="Path 71" d="M251.731,257.672,272.64,245.6c.957-.553,1.732-.1,1.732,1v.69a3.828,3.828,0,0,1-1.732,3l-20.909,12.071c-.956.553-1.732.105-1.732-1v-.69A3.83,3.83,0,0,1,251.731,257.672Z" opacity="0.1"/>
        </g>
        <g id="Group_21" data-name="Group 21">
          <path id="Path_72" data-name="Path 72" d="M250.866,272.243l63.26-36.523c.478-.276.866-.053.866.5V243.6a1.915,1.915,0,0,1-.866,1.5l-63.26,36.523c-.478.276-.866.053-.866-.5v-7.381A1.917,1.917,0,0,1,250.866,272.243Z" fill="#27debf"/>
          <path id="Path_73" data-name="Path 73" d="M250.866,272.243l63.26-36.523c.478-.276.866-.053.866.5V243.6a1.915,1.915,0,0,1-.866,1.5l-63.26,36.523c-.478.276-.866.053-.866-.5v-7.381A1.917,1.917,0,0,1,250.866,272.243Z" fill="#fff" opacity="0.2"/>
        </g>
        <g id="Group_22" data-name="Group 22">
          <path id="Path_74" data-name="Path 74" d="M276.1,276.434l24.97-14.416c.957-.553,1.733-.105,1.733,1v7.725a3.827,3.827,0,0,1-1.733,3L276.1,288.16c-.957.552-1.732.105-1.732-1v-7.726A3.826,3.826,0,0,1,276.1,276.434Z" fill="#27debf"/>
          <path id="Path_75" data-name="Path 75" d="M276.1,276.434l24.97-14.416c.957-.553,1.733-.105,1.733,1v7.725a3.827,3.827,0,0,1-1.733,3L276.1,288.16c-.957.552-1.732.105-1.732-1v-7.726A3.826,3.826,0,0,1,276.1,276.434Z" opacity="0.1"/>
        </g>
      </g>
    </g>
    <g id="Character">
      <g id="Group_28" data-name="Group 28">
        <path id="Path_76" data-name="Path 76" d="M335.3,243.855s-12.285-16.947-13.034-18.964c-.566-1.52.039-3.781.178-4.832s.344-3.39.519-4.041c.3-1.136-1.167-.9-1.993.13-.846,1.058-1.118,3.123-1.538,3.463s-3.7-4.429-5.416-6.636-2.784-3.536-3.825-2.719c-.75.59-.191,1.875,1.05,3.755a37.083,37.083,0,0,1,1.979,3.153c.187.4-.834.436-1.385,1.284-.43.662-.029,1.734-.6,2.244a1.882,1.882,0,0,0-.476,2.466,16.078,16.078,0,0,0,4.229,4.478c1.837,1.273,2.581,1.72,3.664,3.451s10.872,19.4,11.529,20.464,1.933,3.221,3.864,3.282,17.727-13.54,18.542-14.218c2.6-2.171,3.425-2.49,3.874-.534.14.612.232,1.31.331,2.1.312,2.476,2,11.338,2,11.338s7.99,3.872,14.568,1.963,8.785-4.656,8.785-4.656l-3.291-5.364c.9-2.214,5.035-11.168,6.333-17.443l-20.6-3.326c-.423-.092-1.1-.261-1.96-.488-1.131-.3-3.975-1.3-6.167.61-7.089,6.166-21.161,19.042-21.161,19.042" fill="#ffa8a7"/>
        <path id="Path_77" data-name="Path 77" d="M376.144,347.792l-3.694,5.132a12.338,12.338,0,0,0,5.364,1.141c3.3.126,4.213-.959,4.335-1.219.558-1.2-.312-3.356-.551-5.211Z" fill="#37474f"/>
        <path id="Path_78" data-name="Path 78" d="M372.658,350.46s-4.474-.285-7.569-.675-5.543,1.12-4.815,2.395,2.43,2.333,5.081,3.224c2.273.765,5,1.321,7.368,2.031,2.43.727,3.987,1.56,5.364,1.087,1.535-.53,2.194-1.143,2.063-2.261a48.44,48.44,0,0,0-1.243-4.718Z" fill="#37474f"/>
        <path id="Path_79" data-name="Path 79" d="M382.149,342.636s-.559,4.661-.6,5.662-4.549,1.321-5.4-.506l-.14-5.7Z" fill="#f28f8f"/>
        <path id="Path_80" data-name="Path 80" d="M377.605,345.5l1.613,7.071s.152.863-3.533,1.411-9.458-1.926-10.442-2.429-1.1-1.505,2.517-1.3,4.9.208,4.9.208l-1.174-3.135Z" fill="#ffa8a7"/>
        <path id="Path_81" data-name="Path 81" d="M385.19,228.017l2.546-.7s5.335,16.866,5.925,18.49,1.255,3.357.108,5.367c-1.368,2.393-8.579,12.023-8.579,12.023l-4.577-4.479,5.193-9.514-4.593-9.306Z" fill="#f28f8f"/>
        <path id="Path_82" data-name="Path 82" d="M358.973,206.093a7.516,7.516,0,0,1,.108-7.27c2.534-4.715,8.2-7.015,14.943-6.133,3.116.408,6.792,2.965,8.809,6.87,2.216,4.288,2.423,12.931,2.973,16.2Z" fill="#37474f"/>
        <path id="Path_83" data-name="Path 83" d="M358.819,207.939s-1.6,3.05-1.324,3.327a4.114,4.114,0,0,0,1.346.5Z" fill="#ffa8a7"/>
        <path id="Path_84" data-name="Path 84" d="M363.681,198.295c-1.743,1.136-4.742,3.213-4.873,10.067-.135,7.036.859,9.3,1.9,10.119.7.55,4.809.272,6.572-.143s6.835-2.919,8.66-6.728c2.147-4.482,1.712-11.044-1.482-12.948A11.155,11.155,0,0,0,363.681,198.295Z" fill="#ffa8a7"/>
        <g id="Group_24" data-name="Group 24">
          <path id="Path_85" data-name="Path 85" d="M382.148,250.824c3.084,4.8,6.016,9.026,6.641,14.419,1.32,11.39-3.013,24.411-3.932,32.833a15.248,15.248,0,0,1,2.908,8.229c0,3.48-5.616,36.331-5.616,36.331s-4.083,1.244-6.145-.543l-3.859-60.434,2.033-7.357Z" fill="#27debf"/>
          <path id="Path_86" data-name="Path 86" d="M382.148,250.824c3.084,4.8,6.016,9.026,6.641,14.419,1.32,11.39-3.013,24.411-3.932,32.833a15.248,15.248,0,0,1,2.908,8.229c0,3.48-5.616,36.331-5.616,36.331s-4.083,1.244-6.145-.543l-3.859-60.434,2.033-7.357Z" opacity="0.2"/>
        </g>
        <g id="Group_25" data-name="Group 25">
          <path id="Path_87" data-name="Path 87" d="M372.145,281.659l2.033-7.357a49.267,49.267,0,0,0,11.012-4.368s-2.085,3.786-8.055,5.862l-3.111,9.458-.267,21.643Z" fill="#27debf"/>
          <path id="Path_88" data-name="Path 88" d="M372.145,281.659l2.033-7.357a49.267,49.267,0,0,0,11.012-4.368s-2.085,3.786-8.055,5.862l-3.111,9.458-.267,21.643Z" opacity="0.3"/>
        </g>
        <g id="Group_26" data-name="Group 26">
          <path id="Path_89" data-name="Path 89" d="M382.148,250.824c1.651,2.693,5.594,7.3,4.756,11.723-1.016,5.362-3.9,9.131-12.726,11.755L365.9,304.277s4.311,4.033,5.628,7.87,6.077,33.357,6.077,33.357-1.471,2.4-6.121,1.821c0,0-16.21-37.024-17.355-39.408a11.989,11.989,0,0,1-1.372-8.049c.515-3.882,6.038-46.351,6.038-46.351Z" fill="#27debf"/>
          <path id="Path_90" data-name="Path 90" d="M382.148,250.824c1.651,2.693,5.594,7.3,4.756,11.723-1.016,5.362-3.9,9.131-12.726,11.755L365.9,304.277s4.311,4.033,5.628,7.87,6.077,33.357,6.077,33.357-1.471,2.4-6.121,1.821c0,0-16.21-37.024-17.355-39.408a11.989,11.989,0,0,1-1.372-8.049c.515-3.882,6.038-46.351,6.038-46.351Z" opacity="0.2"/>
        </g>
        <g id="Group_27" data-name="Group 27">
          <path id="Path_91" data-name="Path 91" d="M385.19,228.017l-20.6-3.326c-.422-.092-1.1-.263-1.963-.489h0s-.878,12.916-6.161,15.88h0c.125.616.233,1.309.332,2.1.312,2.476,2,11.338,2,11.338s7.99,3.872,14.568,1.963,8.785-4.656,8.785-4.656l-3.291-5.364C379.754,243.246,383.892,234.292,385.19,228.017Z" fill="#27debf"/>
          <path id="Path_92" data-name="Path 92" d="M385.19,228.017l-20.6-3.326c-.422-.092-1.1-.263-1.963-.489h0s-.878,12.916-6.161,15.88h0c.125.616.233,1.309.332,2.1.312,2.476,2,11.338,2,11.338s7.99,3.872,14.568,1.963,8.785-4.656,8.785-4.656l-3.291-5.364C379.754,243.246,383.892,234.292,385.19,228.017Z" fill="#fff" opacity="0.7"/>
        </g>
        <path id="Path_93" data-name="Path 93" d="M379.756,243.351a57.747,57.747,0,0,1-8.565,4.233,16.043,16.043,0,0,0,7.666-2.124Z" fill="#27debf"/>
        <path id="Path_94" data-name="Path 94" d="M363.167,198.641s-.96,6.5,1.365,10.317c0,0,.873-2.589,3.072-2.094s2.307,3.373.77,5a3.2,3.2,0,0,1-3.249,1.041s-.346,4.7-.531,8.64c-.179,3.8-1.239,12.529,3.2,16.039s15.549,4.7,20.758-2.585c2.9-4.052-.952-11.213-2.742-19.243-1.647-7.382-2.574-18.324-10.408-20.079S363.167,198.641,363.167,198.641Z" fill="#37474f"/>
      </g>
    </g>
    <g id="Cloud">
      <path id="Path_95" data-name="Path 95" d="M391.9,109.825l-1.651.954a8.551,8.551,0,0,0,.225-1.792c0-3.345-2.348-4.7-5.246-3.029a9.406,9.406,0,0,0-2.333,2v-.024c0-4.5-3.161-6.33-7.061-4.078a15.609,15.609,0,0,0-7.063,12.232c0,.23.014.447.031.662a4.3,4.3,0,0,0-2.87.667,11.6,11.6,0,0,0-5.246,9.086,5.861,5.861,0,0,0,.133,1.262l-.88.507c-2.391,1.381-4.33,4.075-4.33,6.018s1.939,2.4,4.33,1.018l31.96-18.452c2.392-1.381,4.33-4.075,4.33-6.018S394.3,108.444,391.9,109.825Z" fill="#ebebeb"/>
    </g>
  </g>
</svg>
