<svg width="37" height="37" viewBox="0 0 37 37" fill="none" xmlns="http://www.w3.org/2000/svg">
<path d="M28.3943 12.6234C29.2154 12.449 30.0197 12.4111 30.8073 12.5098C31.5949 12.6084 32.3161 12.8324 32.9708 13.1819C33.6255 13.5314 34.1848 13.9729 34.6486 14.5065C35.1124 15.04 35.448 15.6678 35.6553 16.3898L36.4925 19.5062L34.0844 20.0852L33.2471 16.9688C33.1541 16.6225 33.0027 16.3076 32.793 16.0239C32.5832 15.7403 32.3229 15.4918 32.0119 15.2786C31.7009 15.0654 31.3576 14.906 30.9821 14.8005C30.6066 14.6949 30.2099 14.6348 29.792 14.6201C29.9515 14.9158 30.0937 15.2214 30.2186 15.537C30.3434 15.8526 30.4572 16.1766 30.5598 16.509L31.6762 20.6641C31.6965 20.7399 31.7091 20.8117 31.714 20.8797C31.7189 20.9476 31.7253 21.021 31.7331 21.0997L31.8198 20.9752C32.7468 21.4435 33.5244 22.0514 34.1525 22.7989C34.7806 23.5464 35.2182 24.3801 35.4653 25.2998C35.7124 26.2196 35.7472 27.1443 35.5697 28.074C35.3922 29.0037 35.0158 29.8891 34.4406 30.7301L32.3548 29.6764C32.7595 29.0953 33.0228 28.4848 33.1447 27.8449C33.2665 27.2051 33.2388 26.5551 33.0615 25.8951C32.8638 25.1593 32.4775 24.4918 31.9026 23.8928C31.8045 25.0684 31.5061 26.1942 31.0074 27.2702C30.5086 28.3462 29.8371 29.3256 28.9926 30.2083C28.1482 31.091 27.1782 31.8541 26.0825 32.4977C24.9869 33.1412 23.7681 33.6243 22.426 33.947C21.109 34.2637 19.8005 34.3882 18.5005 34.3206C17.2005 34.253 15.9567 34.0221 14.7692 33.628C13.5818 33.2338 12.5037 32.6751 11.5349 31.9519C10.5661 31.2287 9.72944 30.3758 9.02482 29.3933C8.82205 30.1793 8.81951 30.9402 9.01719 31.676C9.19162 32.3252 9.49384 32.9034 9.92385 33.4106C10.3539 33.9178 10.8948 34.3406 11.5466 34.6793L10.2458 36.5472C9.31878 36.0789 8.54268 35.4764 7.91747 34.7397C7.29226 34.003 6.84838 33.1709 6.58582 32.2433C6.33872 31.3235 6.30247 30.3934 6.47709 29.4529C6.6517 28.5124 7.03434 27.6255 7.62502 26.7923L7.76406 26.8626C7.73117 26.7898 7.69973 26.7225 7.66975 26.6606C7.63976 26.5987 7.6146 26.5299 7.59425 26.4541L6.47792 22.299C6.39071 21.9743 6.32231 21.6452 6.27272 21.3115C6.22314 20.9779 6.19864 20.6382 6.19922 20.2924C5.83656 20.4833 5.51689 20.7099 5.2402 20.9723C4.96351 21.2346 4.74862 21.5282 4.59553 21.853C4.44244 22.1778 4.33907 22.5137 4.2854 22.8607C4.23174 23.2076 4.25288 23.5597 4.34881 23.9168L5.18605 27.0331L2.77786 27.6121L1.94062 24.4958C1.75166 23.7924 1.72484 23.0962 1.86015 22.407C1.99547 21.7178 2.26884 21.0704 2.68027 20.4646C3.09169 19.8588 3.61371 19.3416 4.24633 18.9131C4.87895 18.4845 5.60335 18.1491 6.41954 17.9067C6.60486 17.0558 6.91034 16.2048 7.33597 15.3537C6.59197 15.4174 5.87824 15.3701 5.19479 15.2118C4.51135 15.0536 3.88135 14.7961 3.30481 14.4394C2.72827 14.0827 2.24671 13.657 1.86014 13.1625C1.47357 12.6679 1.1868 12.0975 0.999829 11.4513L0.162584 8.33493L2.57078 7.75594L3.40802 10.8723C3.5243 11.3051 3.72739 11.6883 4.01728 12.0218C4.30717 12.3553 4.65296 12.6235 5.05465 12.8264C5.45635 13.0293 5.89849 13.1592 6.38109 13.216C6.86369 13.2727 7.35585 13.2408 7.85755 13.1202L9.06165 12.8307L9.07473 12.8794C9.56249 12.3589 10.0788 11.8949 10.6236 11.4875C10.3424 11.1865 10.1023 10.8641 9.90307 10.5203C9.70389 10.1765 9.5457 9.81134 9.4285 9.42481C9.225 8.66736 9.22318 7.89022 9.42304 7.09339L6.17859 5.45432L7.47939 3.58641L10.4226 5.07329C10.8736 4.51558 11.401 4.04319 12.0047 3.65613C12.6084 3.26906 13.2914 2.97815 14.0536 2.78337C14.8061 2.60244 15.5453 2.54567 16.2711 2.61308C16.9969 2.68049 17.7065 2.86125 18.3997 3.15536L20.2353 0.519538L22.321 1.57323L20.2975 4.47885C20.8753 5.08872 21.266 5.77237 21.4695 6.52982C21.5712 6.90855 21.6213 7.29392 21.6198 7.68595C21.6183 8.07798 21.5652 8.47666 21.4605 8.882C21.8244 8.94426 22.1709 9.01646 22.5001 9.09859C22.8293 9.18072 23.1705 9.28298 23.5239 9.40538L23.5108 9.35669L24.7149 9.06719C25.2166 8.94656 25.6651 8.75232 26.0605 8.48447C26.4559 8.21661 26.7789 7.90281 27.0294 7.54306C27.2799 7.18332 27.4484 6.79147 27.5348 6.36751C27.6212 5.94355 27.6062 5.51516 27.4899 5.08233L26.6527 1.96596L29.0609 1.38697L29.8981 4.50333C30.0667 5.13093 30.1012 5.75623 30.0015 6.37922C29.9018 7.00221 29.695 7.59912 29.381 8.16996C29.067 8.74079 28.6482 9.24467 28.1247 9.68157C27.6011 10.1185 26.9931 10.4893 26.3005 10.7941C27.104 11.3496 27.802 11.9594 28.3943 12.6234ZM14.6117 4.86095C14.11 4.98157 13.6615 5.17582 13.2661 5.44367C12.8707 5.71153 12.5477 6.02533 12.2972 6.38507C12.0467 6.74482 11.8782 7.13667 11.7918 7.56063C11.7055 7.98459 11.7204 8.41298 11.8367 8.84581C11.982 9.38685 12.2634 9.83759 12.6807 10.198C13.1755 9.95236 13.6713 9.73524 14.1681 9.54667C14.6649 9.35811 15.1878 9.19207 15.7368 9.04857C16.2761 8.91889 16.8116 8.8247 17.3433 8.76598C17.875 8.70727 18.428 8.678 19.0022 8.67818C19.1869 8.17297 19.2066 7.64985 19.0613 7.10882C18.945 6.67599 18.7419 6.29283 18.452 5.95934C18.1621 5.62585 17.8163 5.35764 17.4146 5.15471C17.0129 4.95177 16.5708 4.82192 16.0882 4.76516C15.6056 4.7084 15.1134 4.74033 14.6117 4.86095ZM28.1516 17.088C27.8493 15.9626 27.3058 14.9586 26.5212 14.0759C25.7366 13.1932 24.8098 12.4772 23.7409 11.9278C22.672 11.3785 21.4884 11.0237 20.1902 10.8635C18.892 10.7033 17.5907 10.7801 16.2862 11.0937C14.9692 11.4103 13.7871 11.9307 12.7398 12.6548C11.6926 13.3789 10.8379 14.2237 10.176 15.1892C9.51406 16.1548 9.05487 17.204 8.79844 18.337C8.542 19.47 8.57123 20.5976 8.88611 21.72L10.0024 25.8751C10.3106 27.0221 10.8507 28.0385 11.6228 28.9242C12.3948 29.8099 13.3202 30.5205 14.3987 31.056C15.4773 31.5916 16.6594 31.9409 17.9451 32.1041C19.2307 32.2673 20.5383 32.1891 21.8679 31.8694C23.1974 31.5498 24.3872 31.0333 25.4374 30.32C26.4876 29.6068 27.3437 28.7674 28.0056 27.8018C28.6676 26.8363 29.1205 25.7886 29.3644 24.6586C29.6083 23.5286 29.5761 22.3901 29.268 21.2431L28.1516 17.088Z" fill="#27DEBF"/>
</svg>
